:SAMPLES-PER-SECOND 24
:FULLY-SPECIFIED
:DEGREES
60
root  1.50335 42.006 22.4434 9.27728 -42.1697 2.13853
RightUpLeg  -13.5269 -4.36693 -10.2317
RightLeg  12.5916 1.52746 -0.313019
RightFoot  2.80558 -2.0697 16.7482
RightToes  -2.08645e-008 3.77894e-005 6.81332e-007
Spine  -1.89352 -2.33112 -7.11856
Spine1  5.64636 -4.15356 8.82784
HEad  -39.1109 27.0083 -14.1424
LeftShoulder1  7.42447 -13.2734 -38.1408
LeftArm  13.5703 8.61884 -31.0242
LeftForeArm  170.071 -57.7755 -164.216
LeftHand  -0.215612 -3.11611 3.17837
RightShoulder  4.17373 6.97785 33.9301
RightArm  12.6927 -34.9604 27.5934
RightForeArm  160.194 66.6578 156.241
RightHand  -0.323404 8.28855 -3.11943
LeftUpLeg  -8.71905 9.81935 10.1608
LeftLeg  10.3717 1.59393 -1.09386
LeftFoot  7.00993 3.07414 -19.1738
LeftToes  1.24767e-006 1.47042e-008 1.32732e-009
61
root  2.40386 41.6962 22.0405 7.80316 -41.5013 1.80101
RightUpLeg  -13.3889 -0.792856 -10.8997
RightLeg  23.1618 1.24033 0.385989
RightFoot  1.21601 -1.56713 14.2657
RightToes  -2.08645e-008 3.77894e-005 6.81332e-007
Spine  0.127941 -2.2275 -6.15084
Spine1  5.81673 -3.99353 7.71372
HEad  -37.3794 27.4453 -14.9555
LeftShoulder1  6.70112 -12.5437 -35.7148
LeftArm  14.5226 5.84102 -31.6337
LeftForeArm  171.474 -58.3466 -163.993
LeftHand  -0.250368 -3.07214 3.6721
RightShoulder  3.87729 6.69452 32.1271
RightArm  15.1371 -32.0121 27.4316
RightForeArm  159.715 67.7505 154.945
RightHand  -0.270111 8.42817 -2.64617
LeftUpLeg  -8.83303 10.6179 9.97367
LeftLeg  17.801 3.3698 1.39573
LeftFoot  9.83048 2.7909 -15.1859
LeftToes  1.24767e-006 1.47042e-008 1.32732e-009
62
root  3.16664 40.6628 21.7775 7.74832 -41.8207 1.00313
RightUpLeg  -12.8375 1.6606 -10.7042
RightLeg  29.7229 2.48385 1.3007
RightFoot  -4.81811 -0.74434 12.4377
RightToes  -2.08645e-008 3.77894e-005 6.81332e-007
Spine  -0.923561 -1.79921 -4.95104
Spine1  6.97504 -3.37519 6.50698
HEad  -34.0429 27.3585 -14.9568
LeftShoulder1  6.23033 -12.0905 -33.9477
LeftArm  13.5519 3.81774 -32.1154
LeftForeArm  170.835 -61.0554 -162.183
LeftHand  -0.218142 -3.08591 3.22457
RightShoulder  3.67428 6.54003 30.6809
RightArm  16.6374 -28.5992 27.2463
RightForeArm  156.122 71.0475 149.895
RightHand  -0.268353 8.84017 -2.57301
LeftUpLeg  -8.64057 8.72171 10.6542
LeftLeg  24.3148 5.35443 2.97746
LeftFoot  7.15707 2.80054 -17.3538
LeftToes  1.24767e-006 1.47042e-008 1.32732e-009
63
root  3.79788 39.2366 21.5889 7.90121 -42.1177 0.928959
RightUpLeg  -11.9205 2.29898 -10.9534
RightLeg  30.723 1.78555 0.912504
RightFoot  -15.235 0.238803 10.2597
RightToes  -2.08645e-008 3.77894e-005 6.81332e-007
Spine  -2.90162 -1.29361 -4.27613
Spine1  8.03457 -2.57078 5.02075
HEad  -31.7477 27.1003 -14.8636
LeftShoulder1  6.22603 -12.0029 -34.1447
LeftArm  12.4457 1.20026 -30.7653
LeftForeArm  168.635 -63.8269 -159.846
LeftHand  -0.305758 -2.84296 4.53981
RightShoulder  3.78607 6.66329 31.3444
RightArm  17.6492 -25.3126 25.3078
RightForeArm  150.351 73.8561 143.586
RightHand  -0.500688 8.85534 -4.45943
LeftUpLeg  -8.36 6.97909 10.7511
LeftLeg  27.913 3.60391 2.41502
LeftFoot  -5.47632 1.19999 -22.3458
LeftToes  1.24767e-006 1.47042e-008 1.32732e-009
64
root  4.45084 38.1485 21.3843 7.02951 -41.5156 1.40714
RightUpLeg  -11.7304 1.99155 -11.486
RightLeg  31.3288 -0.685919 -0.69806
RightFoot  -22.1456 0.625105 8.0753
RightToes  -2.08645e-008 3.77894e-005 6.81332e-007
Spine  -3.69907 -0.78434 -3.66706
Spine1  10.1103 -1.74476 3.35585
HEad  -34.0275 26.2006 -16.1426
LeftShoulder1  6.65306 -12.3634 -35.8888
LeftArm  11.0962 -1.1777 -29.5643
LeftForeArm  169.627 -66.2694 -157.699
LeftHand  -0.433246 -2.63622 6.4829
RightShoulder  3.80083 6.53276 31.9802
RightArm  16.2063 -23.1693 25.697
RightForeArm  147.325 75.5165 138.703
RightHand  -0.610072 8.70895 -5.39392
LeftUpLeg  -8.22101 5.28865 9.92579
LeftLeg  29.0088 2.65625 1.96518
LeftFoot  -15.9001 -0.77774 -22.319
LeftToes  1.24767e-006 1.47042e-008 1.32732e-009
65
root  5.01215 38.2008 21.2499 5.54355 -40.1955 1.82963
RightUpLeg  -11.3432 2.52004 -12.0679
RightLeg  32.1902 -1.95998 -1.56854
RightFoot  -21.0648 0.678469 9.59571
RightToes  -2.08645e-008 3.77894e-005 6.81332e-007
Spine  -3.29462 -0.802541 -3.57267
Spine1  11.9665 -1.61115 2.43854
HEad  -38.3151 25.2778 -18.0236
LeftShoulder1  7.40466 -13.1533 -38.3248
LeftArm  8.48671 3.77105 -29.4978
LeftForeArm  173.36 -67.3264 -157.043
LeftHand  -0.422806 -3.0764 6.04188
RightShoulder  3.80636 6.43577 32.4101
RightArm  14.4298 -23.2106 28.1133
RightForeArm  148.272 76.4114 136.13
RightHand  -0.524971 8.85121 -4.65597
LeftUpLeg  -6.91999 2.45685 8.32806
LeftLeg  26.7821 6.27096 3.75434
LeftFoot  -15.6686 -0.656114 -19.4303
LeftToes  1.24767e-006 1.47042e-008 1.32732e-009
66
root  5.2893 39.4038 21.2502 4.74069 -37.9709 1.80716
RightUpLeg  -9.65908 1.98274 -12.2401
RightLeg  29.5571 -1.77291 -1.32041
RightFoot  -12.8466 0.0756288 12.3764
RightToes  -2.08645e-008 3.77894e-005 6.81332e-007
Spine  -3.32252 -1.531 -4.17733
Spine1  12.2308 -2.41136 2.88491
HEad  -38.277 25.2639 -18.253
LeftShoulder1  7.49533 -13.2746 -38.5432
LeftArm  6.64717 15.4585 -32.664
LeftForeArm  173.455 -66.9222 -157.477
LeftHand  -0.376591 -3.19048 5.33857
RightShoulder  3.80651 6.44948 32.3592
RightArm  15.2181 -26.157 31.4758
RightForeArm  149.393 76.3625 136.531
RightHand  -0.656169 8.86692 -5.7137
LeftUpLeg  -4.54236 0.416896 7.73006
LeftLeg  20.5265 7.82227 3.55929
LeftFoot  -7.72857 0.661351 -19.3506
LeftToes  1.24767e-006 1.47042e-008 1.32732e-009
